<svg xmlns="http://www.w3.org/2000/svg" version="1.1" xmlns:xlink="http://www.w3.org/1999/xlink" xmlns:svgjs="http://svgjs.dev/svgjs" width="1000" height="750" viewBox="0 0 1000 750"><rect width="1000" height="750" fill="#ffffff"></rect><g transform="matrix(0.834,0,0,0.834,82.49454545454546,331.3042832135173)"><svg viewBox="0 0 396 42" data-background-color="#ffffff" preserveAspectRatio="xMidYMid meet" height="106" width="1000" xmlns="http://www.w3.org/2000/svg" xmlns:xlink="http://www.w3.org/1999/xlink"><g id="tight-bounds" transform="matrix(1,0,0,1,0.2400000000000091,-0.24053091452566377)"><svg viewBox="0 0 395.52 42.48106182905133" height="42.48106182905133" width="395.52"><g><svg viewBox="0 0 466.7743234380331 50.13417499541031" height="42.48106182905133" width="395.52"><g><rect width="4.49865834781562" height="50.13417499541031" x="54.979072556668726" y="0" fill="#c8c8c8" opacity="1" stroke-width="0" stroke="transparent" fill-opacity="1" class="rect-r$-0" data-fill-palette-color="primary" rx="1%" id="r$-0" data-palette-color="#c8c8c8"></rect></g><g transform="matrix(1,0,0,1,71.25432343803308,0.12471187809803297)"><svg viewBox="0 0 395.52 49.884751239214246" height="49.884751239214246" width="395.52"><g id="textblocktransform"><svg viewBox="0 0 395.52 49.884751239214246" height="49.884751239214246" width="395.52" id="textblock"><g><svg viewBox="0 0 395.52 49.884751239214246" height="49.884751239214246" width="395.52"><g transform="matrix(1,0,0,1,0,0)"><svg width="395.52" viewBox="0.9 -33.55 272.33000000000004 34.349999999999994" height="49.884751239214246" data-palette-color="#c8c8c8"><path d="M9.4 0L0.9 0 12.2-33.55 22.38-33.55 33.05 0 24.63 0 22.8-5.9 11.23-5.9 9.4 0ZM17.18-24.1L13.25-11.83 20.98-11.83 17.18-24.1ZM52.8 0L38.17 0 38.17-33.55 52.7-33.55Q56.77-33.55 59.45-32.36 62.12-31.18 63.46-29.14 64.8-27.1 64.8-24.53L64.8-24.53Q64.8-21.75 63.21-19.83 61.62-17.9 59.05-17.03L59.05-17.03Q60.77-16.57 62.2-15.65 63.62-14.73 64.49-13.21 65.35-11.7 65.35-9.47L65.35-9.47Q65.35-8 64.8-6.35 64.25-4.7 62.87-3.26 61.5-1.83 59.05-0.91 56.6 0 52.8 0L52.8 0ZM46.17-13.18L46.17-7 52.55-7Q54.57-7 55.62-7.76 56.67-8.53 56.67-9.98L56.67-9.98Q56.67-11.43 55.69-12.3 54.7-13.18 52.55-13.18L52.55-13.18 46.17-13.18ZM52.4-26.63L46.17-26.63 46.17-20.23 52.35-20.23Q54.65-20.23 55.62-21.1 56.6-21.98 56.6-23.38L56.6-23.38Q56.6-24.73 55.64-25.68 54.67-26.63 52.4-26.63L52.4-26.63ZM71.7-13.2L71.7-33.55 79.7-33.55 79.7-13.2Q79.7-9.63 81.52-8.05 83.34-6.48 86.09-6.48L86.09-6.48Q88.9-6.48 90.73-8.05 92.57-9.63 92.57-13.2L92.57-13.2 92.57-33.55 100.55-33.55 100.55-13.2Q100.55-8.95 98.87-5.8 97.2-2.65 93.97-0.93 90.75 0.8 86.09 0.8L86.09 0.8Q81.45 0.8 78.23-0.93 75.02-2.65 73.36-5.8 71.7-8.95 71.7-13.2L71.7-13.2ZM123.04 0L108.42 0 108.42-33.55 122.94-33.55Q127.02-33.55 129.69-32.36 132.37-31.18 133.71-29.14 135.04-27.1 135.04-24.53L135.04-24.53Q135.04-21.75 133.46-19.83 131.87-17.9 129.29-17.03L129.29-17.03Q131.02-16.57 132.44-15.65 133.87-14.73 134.73-13.21 135.59-11.7 135.59-9.47L135.59-9.47Q135.59-8 135.04-6.35 134.49-4.7 133.12-3.26 131.74-1.83 129.29-0.91 126.84 0 123.04 0L123.04 0ZM116.42-13.18L116.42-7 122.79-7Q124.82-7 125.87-7.76 126.92-8.53 126.92-9.98L126.92-9.98Q126.92-11.43 125.93-12.3 124.94-13.18 122.79-13.18L122.79-13.18 116.42-13.18ZM122.64-26.63L116.42-26.63 116.42-20.23 122.59-20.23Q124.89-20.23 125.87-21.1 126.84-21.98 126.84-23.38L126.84-23.38Q126.84-24.73 125.88-25.68 124.92-26.63 122.64-26.63L122.64-26.63ZM147.39 0L138.89 0 150.19-33.55 160.37-33.55 171.04 0 162.62 0 160.79-5.9 149.22-5.9 147.39 0ZM155.17-24.1L151.24-11.83 158.97-11.83 155.17-24.1ZM183.76-21.08L195.66-33.55 206.59-33.55 183.76-10.35 183.76-21.08ZM184.89-14.78L190.34-20 207.54 0 197.31 0 184.89-14.78ZM176.16 0L176.16-33.55 184.21-33.55 184.21 0 176.16 0ZM216.49 0L207.99 0 219.28-33.55 229.46-33.55 240.14 0 231.71 0 229.89-5.9 218.31-5.9 216.49 0ZM224.26-24.1L220.34-11.83 228.06-11.83 224.26-24.1ZM253.26 0L245.26 0 245.26-33.55 258.36-33.55Q264.66-33.55 268.15-30.66 271.63-27.78 271.63-22.93L271.63-22.93Q271.63-18.18 268.15-15.31 264.66-12.45 258.36-12.45L258.36-12.45 253.26-12.45 253.26 0ZM273.23 0L262.76 0 254.58-16.2 263.03-16.2 273.23 0ZM253.26-26.63L253.26-17.65 257.46-17.65Q260.43-17.65 261.92-18.89 263.41-20.13 263.41-22.05L263.41-22.05Q263.41-24.05 262.15-25.34 260.88-26.63 258.36-26.63L258.36-26.63 253.26-26.63Z" opacity="1" transform="matrix(1,0,0,1,0,0)" fill="#c8c8c8" class="wordmark-text-0" data-fill-palette-color="primary" id="text-0"></path></svg></g></svg></g></svg></g></svg></g><g transform="matrix(1,0,0,1,0,0.12471187809803297)"><svg viewBox="0 0 43.20248002311998 49.884751239214246" height="49.884751239214246" width="43.20248002311998"><g><svg xmlns="http://www.w3.org/2000/svg" xmlns:xlink="http://www.w3.org/1999/xlink" version="1.1" x="0" y="0" viewBox="9.547 3.29 80.906 93.41999999999999" enable-background="new 0 0 100 100" xml:space="preserve" height="49.884751239214246" width="43.20248002311998" class="icon-icon-0" data-fill-palette-color="accent" id="icon-0"></svg></g></svg></g></svg></g><defs></defs><mask id="1edf08d6-0d67-4db6-ba8d-c207e3d6a8c5"><g id="SvgjsG1030"><svg viewBox="0 0 395.52 42.48106182905133" height="42.48106182905133" width="395.52"><g><svg viewBox="0 0 466.7743234380331 50.13417499541031" height="42.48106182905133" width="395.52"><g></g><g transform="matrix(1,0,0,1,71.25432343803308,0.12471187809803297)"><svg viewBox="0 0 395.52 49.884751239214246" height="49.884751239214246" width="395.52"><g id="SvgjsG1028"><svg viewBox="0 0 395.52 49.884751239214246" height="49.884751239214246" width="395.52" id="SvgjsSvg1027"><g><svg viewBox="0 0 395.52 49.884751239214246" height="49.884751239214246" width="395.52"><g transform="matrix(1,0,0,1,0,0)"><svg width="395.52" viewBox="0.9 -33.55 272.33000000000004 34.349999999999994" height="49.884751239214246" data-palette-color="#c8c8c8"></svg></g></svg></g></svg></g></svg></g><g transform="matrix(1,0,0,1,0,0.12471187809803297)"><svg viewBox="0 0 43.20248002311998 49.884751239214246" height="49.884751239214246" width="43.20248002311998"><g><svg xmlns="http://www.w3.org/2000/svg" xmlns:xlink="http://www.w3.org/1999/xlink" version="1.1" x="0" y="0" viewBox="9.547 3.29 80.906 93.41999999999999" enable-background="new 0 0 100 100" xml:space="preserve" height="49.884751239214246" width="43.20248002311998" class="icon-icon-0" data-fill-palette-color="accent" id="SvgjsSvg1025"><g fill="white"><path d="M31.112 39.094v21.812L49.999 71.81l18.89-10.903V39.094l-18.89-10.905L31.112 39.094zM60.925 56.308l-10.926 6.307-10.924-6.307V43.692l10.924-6.308 10.926 6.308V56.308z" fill="white"></path><path d="M49.999 3.29L9.547 26.646v46.709L49.999 96.71l40.454-23.355V26.646L49.999 3.29zM82.19 68.584L49.999 87.169 17.811 68.584v-37.17l32.188-18.585L82.19 31.414V68.584z" fill="white"></path><path d="M20.368 32.89v34.218l29.631 17.108 29.634-17.108V32.89L49.999 15.782 20.368 32.89zM71.446 62.383l-21.447 12.38-21.444-12.38V37.618l21.444-12.382 21.447 12.382V62.383z" fill="white"></path></g></svg></g></svg></g></svg></g><defs><mask></mask></defs></svg></g></mask><linearGradient x1="0" x2="1" y1="0.5" y2="0.5" id="cdf8cb0d-18d2-4baf-832c-f33bff1a72fa"><stop stop-color="#f00b51" offset="0"></stop><stop stop-color="#730062" offset="1"></stop></linearGradient><rect width="395.52" height="42.48106182905133" fill="url(#cdf8cb0d-18d2-4baf-832c-f33bff1a72fa)" mask="url(#1edf08d6-0d67-4db6-ba8d-c207e3d6a8c5)" data-fill-palette-color="accent"></rect></svg><rect width="395.52" height="42.48106182905133" fill="none" stroke="none" visibility="hidden"></rect></g></svg></g></svg>